<svg width="99" height="97" viewBox="0 0 99 97" fill="none" xmlns="http://www.w3.org/2000/svg">
<path d="M79.4972 5.76843C75.1973 6.48868 64.2973 12.5301 64.9468 22.5188M64.9468 22.5188C65.132 25.3677 65.3969 29.0643 68.6478 31.7661C72.0478 34.5922 78.8526 27.8403 64.9468 22.5188ZM64.9468 22.5188C57.077 19.7415 40.2847 18.4423 36.0744 35.4649C33.4896 48.8759 40.1045 65.0377 43.6528 75.6939C35.4749 62.9026 14.8735 47.9496 3.83997 46.5625" stroke="#F4A6A0" stroke-width="3"/>
<path d="M78.0601 10.7411L79.2777 5.49902L74.0384 4.33741L74.4141 2.7196L81.2705 4.23971L79.677 11.0997L78.0601 10.7411Z" fill="#F4A6A0"/>
<path d="M29.9406 90.5979C30.0327 89.127 30.7226 85.227 32.7445 81.3923" stroke="#F4A6A0" stroke-width="3"/>
<path d="M5.57312 90.448C9.49256 86.2242 19.4228 77.2183 27.7883 74.9854" stroke="#F4A6A0" stroke-width="3"/>
<path d="M63.7716 6.16664C61.7883 6.05433 57.8933 10.2328 59.0808 14.3843" stroke="#F4A6A0" stroke-width="3"/>
</svg>
