<svg width="99" height="97" viewBox="0 0 99 97" fill="none" xmlns="http://www.w3.org/2000/svg">
<path d="M79.4972 5.76855C75.1973 6.4888 64.2973 12.5302 64.9468 22.5189M64.9468 22.5189C65.132 25.3678 65.3969 29.0644 68.6478 31.7662C72.0478 34.5923 78.8526 27.8404 64.9468 22.5189ZM64.9468 22.5189C57.077 19.7416 40.2847 18.4425 36.0744 35.465C33.4896 48.876 40.1045 65.0378 43.6528 75.6941C35.4749 62.9028 14.8735 47.9498 3.83997 46.5627" stroke="#F4A6A0" stroke-width="3"/>
<path d="M78.0601 10.7413L79.2777 5.49915L74.0384 4.33754L74.4141 2.71973L81.2705 4.23983L79.677 11.0998L78.0601 10.7413Z" fill="#F4A6A0"/>
<path d="M29.9406 90.5979C30.0327 89.127 30.7226 85.227 32.7445 81.3923" stroke="#F4A6A0" stroke-width="3"/>
<path d="M5.57312 90.448C9.49256 86.2242 19.4228 77.2183 27.7883 74.9854" stroke="#F4A6A0" stroke-width="3"/>
<path d="M63.7716 6.16652C61.7883 6.05421 57.8933 10.2327 59.0808 14.3842" stroke="#F4A6A0" stroke-width="3"/>
</svg>
