<svg width="25" height="20" viewBox="0 0 25 20" fill="none" xmlns="http://www.w3.org/2000/svg">
<path d="M23.8747 2.30815C23.4909 2.47836 23.0964 2.62202 22.6932 2.73864C23.1705 2.19886 23.5344 1.56372 23.7566 0.868699C23.8064 0.71291 23.7547 0.542386 23.6267 0.440496C23.4988 0.338528 23.3211 0.326314 23.1803 0.409764C22.3241 0.917556 21.4004 1.28248 20.4319 1.49587C19.4562 0.542543 18.1311 0 16.7613 0C13.8697 0 11.5171 2.35244 11.5171 5.24395C11.5171 5.47169 11.5316 5.69816 11.5601 5.92148C7.97189 5.60644 4.63602 3.8428 2.34528 1.03284C2.26365 0.932686 2.13788 0.878707 2.00912 0.88903C1.88028 0.899117 1.76452 0.971771 1.69943 1.08343C1.23482 1.88066 0.989203 2.79246 0.989203 3.72018C0.989203 4.98375 1.44034 6.18263 2.23725 7.11941C1.99494 7.03549 1.7598 6.93061 1.53537 6.80602C1.41488 6.73896 1.26784 6.73999 1.14814 6.80862C1.02837 6.87726 0.953269 7.0035 0.950117 7.14148C0.949566 7.16472 0.949566 7.18797 0.949566 7.21153C0.949566 9.09763 1.96468 10.7957 3.51666 11.7212C3.38333 11.7079 3.25007 11.6886 3.11769 11.6633C2.98121 11.6372 2.84086 11.685 2.74882 11.7891C2.65663 11.8932 2.62613 12.0382 2.6686 12.1705C3.24306 13.964 4.72207 15.2833 6.51006 15.6854C5.02711 16.6143 3.33124 17.1008 1.55097 17.1008C1.17951 17.1008 0.805912 17.079 0.440277 17.0357C0.258641 17.0141 0.0849639 17.1214 0.0231053 17.2941C-0.0387533 17.4669 0.026809 17.6596 0.181337 17.7586C2.46837 19.225 5.11285 20.0001 7.82871 20.0001C13.1678 20.0001 16.5077 17.4824 18.3694 15.3703C20.6909 12.7367 22.0223 9.25082 22.0223 5.80651C22.0223 5.66262 22.0201 5.51731 22.0157 5.37248C22.9316 4.68242 23.7201 3.84729 24.3618 2.88742C24.4593 2.74164 24.4487 2.54897 24.3358 2.41477C24.2231 2.28049 24.0351 2.23707 23.8747 2.30815Z" fill="#F4A6A0"/>
</svg>
