<svg width="21" height="17" viewBox="0 0 21 17" fill="none" xmlns="http://www.w3.org/2000/svg">
<path d="M20.2934 1.96192C19.9672 2.1066 19.6318 2.2287 19.2891 2.32783C19.6948 1.86902 20.0041 1.32916 20.193 0.738391C20.2353 0.605971 20.1914 0.461025 20.0826 0.37442C19.9739 0.287747 19.8228 0.277365 19.7031 0.348298C18.9754 0.779918 18.1903 1.0901 17.367 1.27149C16.5377 0.461159 15.4114 0 14.247 0C11.7891 0 9.78952 1.99956 9.78952 4.45734C9.78952 4.65091 9.80177 4.84341 9.82602 5.03323C6.77607 4.76545 3.9406 3.26636 1.99348 0.87791C1.92409 0.792779 1.81719 0.746897 1.70774 0.755672C1.59823 0.764245 1.49984 0.826001 1.44451 0.920912C1.0496 1.59855 0.840818 2.37358 0.840818 3.16214C0.840818 4.23617 1.22428 5.25521 1.90165 6.05147C1.69569 5.98013 1.49582 5.89098 1.30506 5.78509C1.20265 5.72809 1.07766 5.72896 0.975917 5.7873C0.874107 5.84564 0.810275 5.95294 0.807596 6.07022C0.807127 6.08998 0.807127 6.10974 0.807127 6.12977C0.807127 7.73294 1.66997 9.1763 2.98914 9.96298C2.87581 9.95166 2.76255 9.93525 2.65002 9.91375C2.53401 9.89158 2.41472 9.93224 2.33649 10.0207C2.25812 10.1091 2.2322 10.2324 2.2683 10.3449C2.75659 11.8694 4.01374 12.9907 5.53352 13.3326C4.27302 14.1221 2.83154 14.5356 1.31832 14.5356C1.00258 14.5356 0.685022 14.517 0.374233 14.4803C0.219844 14.4619 0.072219 14.5531 0.0196394 14.6999C-0.0329401 14.8468 0.0227875 15.0105 0.154136 15.0947C2.0981 16.3412 4.3459 17 6.65437 17C11.1926 17 14.0315 14.86 15.6139 13.0647C17.5872 10.8262 18.7189 7.86315 18.7189 4.93551C18.7189 4.8132 18.717 4.68969 18.7132 4.56658C19.4917 3.98004 20.162 3.27018 20.7074 2.45429C20.7903 2.33038 20.7813 2.16661 20.6853 2.05254C20.5895 1.93841 20.4297 1.9015 20.2934 1.96192Z" fill="#F4A6A0"/>
</svg>
