<svg width="220" height="59" viewBox="0 0 220 59" fill="none" xmlns="http://www.w3.org/2000/svg">
<circle opacity="0.05" cx="190.886" cy="29.1139" r="29.1139" fill="#333333"/>
<circle opacity="0.05" cx="110" cy="29.1139" r="29.1139" fill="#333333"/>
<circle opacity="0.05" cx="29.1139" cy="29.1139" r="29.1139" fill="#333333"/>
<path d="M23.1891 29.8023H25.9359V41.1105C25.9359 41.3337 26.1168 41.5147 26.3401 41.5147H30.9974C31.2207 41.5147 31.4016 41.3337 31.4016 41.1105V29.8555H34.5593C34.7646 29.8555 34.9374 29.7015 34.9608 29.4975L35.4404 25.3344C35.4536 25.2199 35.4173 25.1052 35.3406 25.0192C35.2639 24.9332 35.1542 24.884 35.039 24.884H31.4018V22.2743C31.4018 21.4877 31.8253 21.0887 32.6608 21.0887C32.7799 21.0887 35.039 21.0887 35.039 21.0887C35.2622 21.0887 35.4431 20.9078 35.4431 20.6846V16.8632C35.4431 16.64 35.2622 16.459 35.039 16.459H31.7615C31.7384 16.4579 31.6871 16.4561 31.6114 16.4561C31.0428 16.4561 29.0661 16.5677 27.5047 18.0041C25.7747 19.5959 26.0152 21.5018 26.0727 21.8323V24.8839H23.1891C22.9658 24.8839 22.7849 25.0648 22.7849 25.2881V29.398C22.7849 29.6213 22.9658 29.8023 23.1891 29.8023Z" fill="#F4A6A0"/>
<path fill-rule="evenodd" clip-rule="evenodd" d="M113.828 40.1807C111.123 40.1807 107.275 40.0486 104.709 40.0486C99.9101 40.0486 98.6074 37.2985 98.6074 33.8019C98.6074 30.3052 98.6782 26.4377 98.6782 25.1122C98.6782 21.1838 100.474 19.0025 104.924 19.0025C106.57 19.0025 112.761 18.9873 114.869 18.9873C118.918 18.9873 120.86 20.6074 120.86 25.3509C120.86 26.5215 120.771 28.713 120.771 34.7897C120.771 38.6114 118.908 40.1807 113.828 40.1807ZM109.765 24.0431C102.211 24.0431 101.847 35.1807 109.894 35.1807C117.243 35.1807 117.291 24.0431 109.765 24.0431ZM116.593 21.8364C114.41 21.8364 114.305 25.0386 116.633 25.0386C118.756 25.0335 118.771 21.8364 116.593 21.8364Z" fill="#F4A6A0"/>
<path d="M203.916 21.4717C203.503 21.6549 203.078 21.8094 202.645 21.9349C203.158 21.3541 203.55 20.6708 203.789 19.923C203.842 19.7553 203.787 19.5719 203.649 19.4622C203.511 19.3525 203.32 19.3394 203.169 19.4292C202.247 19.9755 201.254 20.3682 200.212 20.5978C199.162 19.572 197.736 18.9883 196.262 18.9883C193.151 18.9883 190.62 21.5194 190.62 24.6305C190.62 24.8755 190.635 25.1192 190.666 25.3595C186.805 25.0205 183.216 23.1229 180.751 20.0996C180.664 19.9918 180.528 19.9337 180.39 19.9448C180.251 19.9557 180.126 20.0339 180.056 20.154C179.557 21.0118 179.292 21.9928 179.292 22.991C179.292 24.3505 179.778 25.6404 180.635 26.6484C180.374 26.5581 180.121 26.4452 179.88 26.3112C179.75 26.239 179.592 26.2401 179.463 26.314C179.334 26.3878 179.254 26.5236 179.25 26.6721C179.25 26.6971 179.25 26.7221 179.25 26.7475C179.25 28.7768 180.342 30.6039 182.012 31.5997C181.868 31.5853 181.725 31.5646 181.582 31.5373C181.436 31.5093 181.285 31.5607 181.186 31.6727C181.086 31.7847 181.054 31.9407 181.099 32.0831C181.717 34.0128 183.309 35.4322 185.232 35.8649C183.637 36.8643 181.812 37.3878 179.897 37.3878C179.497 37.3878 179.095 37.3643 178.702 37.3177C178.506 37.2945 178.319 37.4099 178.253 37.5957C178.186 37.7817 178.257 37.989 178.423 38.0956C180.884 39.6733 183.729 40.5073 186.651 40.5073C192.396 40.5073 195.989 37.7984 197.992 35.5259C200.49 32.6923 201.923 28.9416 201.923 25.2358C201.923 25.0809 201.92 24.9246 201.916 24.7688C202.901 24.0263 203.75 23.1277 204.44 22.095C204.545 21.9381 204.533 21.7308 204.412 21.5864C204.291 21.442 204.088 21.3952 203.916 21.4717Z" fill="#F4A6A0"/>
</svg>
