<svg width="21" height="20" viewBox="0 0 21 20" fill="none" xmlns="http://www.w3.org/2000/svg">
<path fill-rule="evenodd" clip-rule="evenodd" d="M14.3636 20C11.811 20 8.17986 19.8754 5.7583 19.8754C1.22933 19.8754 0 17.2801 0 13.9804C0 10.6806 0.0667846 7.03089 0.0667846 5.78C0.0667846 2.07284 1.76113 0.0143784 5.96113 0.0143784C7.51449 0.0143784 13.3569 0 15.3456 0C19.1671 0 21 1.52887 21 6.00525C21 7.10997 20.9159 9.17807 20.9159 14.9125C20.9159 18.519 19.1572 20 14.3636 20ZM10.5297 4.77113C3.40106 4.77113 3.05724 15.2816 10.6509 15.2816C17.5866 15.2816 17.6311 4.77113 10.5297 4.77113ZM16.9731 2.68871C14.9127 2.68871 14.8138 5.7105 17.0102 5.7105C19.0138 5.70571 19.0286 2.68871 16.9731 2.68871Z" fill="#F4A6A0"/>
</svg>
