<svg width="18" height="17" viewBox="0 0 18 17" fill="none" xmlns="http://www.w3.org/2000/svg">
<path fill-rule="evenodd" clip-rule="evenodd" d="M12.2091 17.0001C10.0394 17.0001 6.95292 16.8942 4.89459 16.8942C1.04494 16.8942 0 14.6882 0 11.8834C0 9.07855 0.0567672 5.9763 0.0567672 4.91303C0.0567672 1.76193 1.49697 0.0122217 5.06699 0.0122217C6.38735 0.0122217 11.3534 0 13.0438 0C16.2922 0 17.8501 1.29955 17.8501 5.1045C17.8501 6.04351 17.7786 7.80141 17.7786 12.6757C17.7786 15.7413 16.2838 17.0001 12.2091 17.0001ZM8.95028 4.05549C2.89092 4.05549 2.59867 12.9894 9.0533 12.9894C14.9487 12.9894 14.9865 4.05549 8.95028 4.05549ZM14.4273 2.28541C12.6759 2.28541 12.5918 4.85396 14.4588 4.85396C16.1618 4.84988 16.1744 2.28541 14.4273 2.28541Z" fill="#F4A6A0"/>
</svg>
