<svg width="50" height="50" viewBox="0 0 50 50" fill="none" xmlns="http://www.w3.org/2000/svg">
<g opacity="0.3">
<path d="M22.3566 7.64344C21.7316 7.01853 20.8839 6.66748 20 6.66748C19.1161 6.66748 18.2684 7.01853 17.6433 7.64344L2.64331 22.6434C2.01841 23.2685 1.66736 24.1162 1.66736 25.0001C1.66736 25.884 2.01841 26.7317 2.64331 27.3568L17.6433 42.3568C18.272 42.964 19.114 43.2999 19.988 43.2923C20.862 43.2848 21.698 42.9342 22.316 42.3162C22.9341 41.6981 23.2846 40.8621 23.2922 39.9881C23.2998 39.1141 22.9638 38.2721 22.3566 37.6434L13.3333 28.3334H45C45.884 28.3334 46.7319 27.9822 47.357 27.3571C47.9821 26.732 48.3333 25.8842 48.3333 25.0001C48.3333 24.116 47.9821 23.2682 47.357 22.6431C46.7319 22.018 45.884 21.6668 45 21.6668H13.3333L22.3566 12.3568C22.9816 11.7317 23.3326 10.884 23.3326 10.0001C23.3326 9.11622 22.9816 8.26853 22.3566 7.64344Z" fill="white"/>
</g>
</svg>
