<svg width="50" height="50" viewBox="0 0 50 50" fill="none" xmlns="http://www.w3.org/2000/svg">
<path d="M27.6434 7.64344C28.2684 7.01853 29.1161 6.66748 30 6.66748C30.8839 6.66748 31.7316 7.01853 32.3567 7.64344L47.3567 22.6434C47.9816 23.2685 48.3326 24.1162 48.3326 25.0001C48.3326 25.884 47.9816 26.7317 47.3567 27.3568L32.3567 42.3568C31.728 42.964 30.886 43.2999 30.012 43.2923C29.138 43.2848 28.302 42.9342 27.684 42.3162C27.0659 41.6981 26.7154 40.8621 26.7078 39.9881C26.7002 39.1141 27.0362 38.2721 27.6434 37.6434L36.6667 28.3334H5.00002C4.11597 28.3334 3.26812 27.9822 2.643 27.3571C2.01788 26.732 1.66669 25.8842 1.66669 25.0001C1.66669 24.116 2.01788 23.2682 2.643 22.6431C3.26812 22.018 4.11597 21.6668 5.00002 21.6668H36.6667L27.6434 12.3568C27.0184 11.7317 26.6674 10.884 26.6674 10.0001C26.6674 9.11622 27.0184 8.26853 27.6434 7.64344Z" fill="white"/>
</svg>
